0
SECTION
2
HEADER
9
$INSUNITS
70
4
9
$ACADVER
1
AC1014
9
$HANDSEED
5
FFFF
0
ENDSEC
0
SECTION
2
TABLES
0
TABLE
2
VPORT
5
8
100
AcDbSymbolTable
0
ENDTAB
0
TABLE
2
LTYPE
5
5
100
AcDbSymbolTable
0
LTYPE
5
14
100
AcDbSymbolTableRecord
100
AcDbLinetypeTableRecord
2
BYBLOCK
70
0
0
LTYPE
5
15
100
AcDbSymbolTableRecord
100
AcDbLinetypeTableRecord
2
BYLAYER
70
0
0
ENDTAB
0
TABLE
2
LAYER
5
2
100
AcDbSymbolTable
70
2
0
LAYER
5
50
100
AcDbSymbolTableRecord
100
AcDbLayerTableRecord
2
0
70
0
6
CONTINUOUS
0
ENDTAB
0
TABLE
2
STYLE
5
3
100
AcDbSymbolTable
70
1
0
STYLE
5
11
100
AcDbSymbolTableRecord
100
AcDbTextStyleTableRecord
2
STANDARD
70
0
0
ENDTAB
0
TABLE
2
VIEW
5
6
100
AcDbSymbolTable
70
0
0
ENDTAB
0
TABLE
2
UCS
5
7
100
AcDbSymbolTable
70
0
0
ENDTAB
0
TABLE
2
APPID
5
9
100
AcDbSymbolTable
70
2
0
APPID
5
12
100
AcDbSymbolTableRecord
100
AcDbRegAppTableRecord
2
ACAD
70
0
0
ENDTAB
0
TABLE
2
DIMSTYLE
5
A
100
AcDbSymbolTable
70
1
0
ENDTAB
0
TABLE
2
BLOCK_RECORD
5
1
100
AcDbSymbolTable
70
1
0
BLOCK_RECORD
5
1F
100
AcDbSymbolTableRecord
100
AcDbBlockTableRecord
2
*MODEL_SPACE
0
BLOCK_RECORD
5
1B
100
AcDbSymbolTableRecord
100
AcDbBlockTableRecord
2
*PAPER_SPACE
0
ENDTAB
0
ENDSEC
0
SECTION
2
BLOCKS
0
BLOCK
5
20
100
AcDbEntity
100
AcDbBlockBegin
2
*MODEL_SPACE
0
ENDBLK
5
21
100
AcDbEntity
100
AcDbBlockEnd
0
BLOCK
5
1C
100
AcDbEntity
100
AcDbBlockBegin
2
*PAPER_SPACE
0
ENDBLK
5
1D
100
AcDbEntity
100
AcDbBlockEnd
0
ENDSEC
0
SECTION
2
ENTITIES
0
LWPOLYLINE
5
100
100
AcDbEntity
8
0
100
AcDbPolyline
90
4
70
1
43
0.0
10
0
20
0
10
248.00000000000006
20
0
10
248.00000000000006
20
212.00000000000003
10
0
20
212.00000000000003
0
CIRCLE
5
101
100
AcDbEntity
8
0
100
AcDbCircle
10
36
20
187.00000000000003
30
0
40
11.300000000000001
210
0
220
0
230
1
0
CIRCLE
5
102
100
AcDbEntity
8
0
100
AcDbCircle
10
36
20
132.00000000000003
30
0
40
13
210
0
220
0
230
1
0
CIRCLE
5
103
100
AcDbEntity
8
0
100
AcDbCircle
10
107.00000000000001
20
177.00000000000003
30
0
40
19
210
0
220
0
230
1
0
CIRCLE
5
104
100
AcDbEntity
8
0
100
AcDbCircle
10
91.000000000000014
20
161
30
0
40
2.25
210
0
220
0
230
1
0
CIRCLE
5
105
100
AcDbEntity
8
0
100
AcDbCircle
10
123
20
161
30
0
40
2.25
210
0
220
0
230
1
0
CIRCLE
5
106
100
AcDbEntity
8
0
100
AcDbCircle
10
123
20
193.00000000000006
30
0
40
2.25
210
0
220
0
230
1
0
CIRCLE
5
107
100
AcDbEntity
8
0
100
AcDbCircle
10
91.000000000000014
20
193.00000000000006
30
0
40
2.25
210
0
220
0
230
1
0
CIRCLE
5
108
100
AcDbEntity
8
0
100
AcDbCircle
10
48.000000000000007
20
196.50000000000003
30
0
40
1.6000000000000003
210
0
220
0
230
1
0
CIRCLE
5
109
100
AcDbEntity
8
0
100
AcDbCircle
10
24
20
177.50000000000003
30
0
40
1.6000000000000003
210
0
220
0
230
1
0
LWPOLYLINE
5
110
100
AcDbEntity
8
0
100
AcDbPolyline
90
4
70
1
43
0.0
10
236
20
108.10000000000002
10
233
20
108.10000000000002
42
0.99999999999999989
10
233
20
103.90000000000001
10
236
20
103.90000000000001
42
0.99999999999999989
0
LWPOLYLINE
5
111
100
AcDbEntity
8
0
100
AcDbPolyline
90
4
70
1
43
0.0
10
198.00000000000006
20
108.09999999994429
10
195.00000000000168
20
108.09999999994429
42
0.99999999999999989
10
195.00000000000168
20
103.90000000005574
10
198.00000000000006
20
103.90000000005574
42
0.99999999999999989
0
CIRCLE
5
112
100
AcDbEntity
8
0
100
AcDbCircle
10
196.50000000000006
20
121.00000000000001
30
0
40
1.7500000000000002
210
0
220
0
230
1
0
CIRCLE
5
113
100
AcDbEntity
8
0
100
AcDbCircle
10
196.50000000000006
20
91.000000000000014
30
0
40
1.7500000000000002
210
0
220
0
230
1
0
CIRCLE
5
114
100
AcDbEntity
8
0
100
AcDbCircle
10
234.50000000000003
20
121.00000000000001
30
0
40
1.7500000000000002
210
0
220
0
230
1
0
CIRCLE
5
115
100
AcDbEntity
8
0
100
AcDbCircle
10
234.50000000000003
20
91.000000000000014
30
0
40
1.7500000000000002
210
0
220
0
230
1
0
SPLINE
5
116
100
AcDbEntity
8
0
100
AcDbSpline
70
4
71
3
72
8
73
4
74
0
42
0.000000001
43
0.0000000001
44
0.0000000001
40
0
40
0
40
0
40
0
40
1
40
1
40
1
40
1
41
1
41
1
41
1
41
1
10
206.85471005107243
20
197.18182873327859
30
0
10
211.60548637368481
20
194.02592965233825
30
0
10
211.64504909912512
20
186.00506303825696
30
0
10
206.94280560303409
20
179.26649602251524
30
0
0
SPLINE
5
117
100
AcDbEntity
8
0
100
AcDbSpline
70
4
71
3
72
8
73
4
74
0
42
0.000000001
43
0.0000000001
44
0.0000000001
40
0
40
0
40
0
40
0
40
1
40
1
40
1
40
1
41
1
41
1
41
1
41
1
10
206.94280560303409
20
179.26649602251524
30
0
10
202.24056238585561
20
172.52792924080893
30
0
10
194.57731534713986
20
169.6237341232052
30
0
10
189.82653753056056
20
172.77963385172495
30
0
0
SPLINE
5
118
100
AcDbEntity
8
0
100
AcDbSpline
70
4
71
3
72
8
73
4
74
0
42
0.000000001
43
0.0000000001
44
0.0000000001
40
0
40
0
40
0
40
0
40
1
40
1
40
1
40
1
41
1
41
1
41
1
41
1
10
189.82653753056056
20
172.77963385172495
30
0
10
185.07575971398126
20
175.93553358024468
30
0
10
185.0363446623719
20
183.95652030505011
30
0
10
189.73844190887075
20
190.69496650397946
30
0
0
SPLINE
5
119
100
AcDbEntity
8
0
100
AcDbSpline
70
4
71
3
72
8
73
4
74
0
42
0.000000001
43
0.0000000001
44
0.0000000001
40
0
40
0
40
0
40
0
40
1
40
1
40
1
40
1
41
1
41
1
41
1
41
1
10
189.73844190887075
20
190.69496650397946
30
0
10
194.44056155533846
20
197.43368055152422
30
0
10
202.10381008802113
20
200.33787502154851
30
0
10
206.85471005107243
20
197.18182873327859
30
0
0
SPLINE
5
120
100
AcDbEntity
8
0
100
AcDbSpline
70
4
71
3
72
8
73
4
74
0
42
0.000000001
43
0.0000000001
44
0.0000000001
40
0
40
0
40
0
40
0
40
1
40
1
40
1
40
1
41
1
41
1
41
1
41
1
10
228.15581589900833
20
172.49671791496542
30
0
10
230.90302306287458
20
167.40495393511029
30
0
10
227.27221210830166
20
160.06778927428053
30
0
10
220.04664718215827
20
156.1077310796953
30
0
0
SPLINE
5
121
100
AcDbEntity
8
0
100
AcDbSpline
70
4
71
3
72
8
73
4
74
0
42
0.000000001
43
0.0000000001
44
0.0000000001
40
0
40
0
40
0
40
0
40
1
40
1
40
1
40
1
41
1
41
1
41
1
41
1
10
220.04664718215827
20
156.1077310796953
30
0
10
212.82122784837787
20
152.14779505160823
30
0
10
204.73618193102706
20
153.06583939795723
30
0
10
201.98921848650801
20
158.15731357934004
30
0
0
SPLINE
5
122
100
AcDbEntity
8
0
100
AcDbSpline
70
4
71
3
72
8
73
4
74
0
42
0.000000001
43
0.0000000001
44
0.0000000001
40
0
40
0
40
0
40
0
40
1
40
1
40
1
40
1
41
1
41
1
41
1
41
1
10
201.98921848650801
20
158.15731357934004
30
0
10
199.24213334356168
20
163.24893279526071
30
0
10
202.8727001342705
20
170.58638688156887
30
0
10
210.09824303876161
20
174.54617564381749
30
0
0
SPLINE
5
123
100
AcDbEntity
8
0
100
AcDbSpline
70
4
71
3
72
8
73
4
74
0
42
0.000000001
43
0.0000000001
44
0.0000000001
40
0
40
0
40
0
40
0
40
1
40
1
40
1
40
1
41
1
41
1
41
1
41
1
10
210.09824303876161
20
174.54617564381749
30
0
10
217.32365862797502
20
178.5061161345057
30
0
10
225.4085823588016
20
177.58821641313259
30
0
10
228.15581589900833
20
172.49671791496542
30
0
0
SPLINE
5
124
100
AcDbEntity
8
0
100
AcDbSpline
70
4
71
3
72
8
73
4
74
0
42
0.000000001
43
0.0000000001
44
0.0000000001
40
0
40
0
40
0
40
0
40
1
40
1
40
1
40
1
41
1
41
1
41
1
41
1
10
222.55109938000521
20
142.40262123990857
30
0
10
224.08124047044225
20
137.166260643231
30
0
10
219.37166099896419
20
131.11977182428041
30
0
10
212.03162941018877
20
128.89769719135739
30
0
0
SPLINE
5
125
100
AcDbEntity
8
0
100
AcDbSpline
70
4
71
3
72
8
73
4
74
0
42
0.000000001
43
0.0000000001
44
0.0000000001
40
0
40
0
40
0
40
0
40
1
40
1
40
1
40
1
41
1
41
1
41
1
41
1
10
212.03162941018877
20
128.89769719135739
30
0
10
204.69159630814698
20
126.67562889331903
30
0
10
197.50119962506605
20
129.11885507633929
30
0
10
195.97106339484637
20
134.35521214655742
30
0
0
SPLINE
5
126
100
AcDbEntity
8
0
100
AcDbSpline
70
4
71
3
72
8
73
4
74
0
42
0.000000001
43
0.0000000001
44
0.0000000001
40
0
40
0
40
0
40
0
40
1
40
1
40
1
40
1
41
1
41
1
41
1
41
1
10
195.97106339484637
20
134.35521214655742
30
0
10
194.44092716462663
20
139.59156921677555
30
0
10
199.15079519191409
20
145.63830776746531
30
0
10
206.49028885215802
20
147.86042532804262
30
0
0
SPLINE
5
127
100
AcDbEntity
8
0
100
AcDbSpline
70
4
71
3
72
8
73
4
74
0
42
0.000000001
43
0.0000000001
44
0.0000000001
40
0
40
0
40
0
40
0
40
1
40
1
40
1
40
1
41
1
41
1
41
1
41
1
10
206.49028885215802
20
147.86042532804262
30
0
10
213.83019687022266
20
150.08264722680414
30
0
10
221.02095940521855
20
147.63898277272787
30
0
10
222.55109938000521
20
142.40262123990857
30
0
0
SPLINE
5
128
100
AcDbEntity
8
0
100
AcDbSpline
70
4
71
3
72
8
73
4
74
0
42
0.000000001
43
0.0000000001
44
0.0000000001
40
0
40
0
40
0
40
0
40
1
40
1
40
1
40
1
41
1
41
1
41
1
41
1
10
175.65193695177317
20
195.47600252406497
30
0
10
180.63842474337804
20
193.5011902180041
30
0
10
182.26185034706663
20
186.19185489290157
30
0
10
179.27772619523262
20
179.15013142075804
30
0
0
SPLINE
5
129
100
AcDbEntity
8
0
100
AcDbSpline
70
4
71
3
72
8
73
4
74
0
42
0.000000001
43
0.0000000001
44
0.0000000001
40
0
40
0
40
0
40
0
40
1
40
1
40
1
40
1
41
1
41
1
41
1
41
1
10
179.27772619523262
20
179.15013142075804
30
0
10
176.29360110725685
20
172.10840906426481
30
0
10
169.83202925148669
20
168.00048441262138
30
0
10
164.84524628062545
20
169.97504808329387
30
0
0
SPLINE
5
130
100
AcDbEntity
8
0
100
AcDbSpline
70
4
71
3
72
8
73
4
74
0
42
0.000000001
43
0.0000000001
44
0.0000000001
40
0
40
0
40
0
40
0
40
1
40
1
40
1
40
1
41
1
41
1
41
1
41
1
10
164.84524628062545
20
169.97504808329387
30
0
10
159.85888223923985
20
171.94971517530831
30
0
10
158.23547968309958
20
179.25931984299319
30
0
10
161.21962717104424
20
186.30131004810184
30
0
0
SPLINE
5
131
100
AcDbEntity
8
0
100
AcDbSpline
70
4
71
3
72
8
73
4
74
0
42
0.000000001
43
0.0000000001
44
0.0000000001
40
0
40
0
40
0
40
0
40
1
40
1
40
1
40
1
41
1
41
1
41
1
41
1
10
161.21962717104424
20
186.30131004810184
30
0
10
164.20373144675423
20
193.3427671952727
30
0
10
170.66557070834142
20
197.45066770893186
30
0
10
175.65193695177317
20
195.47600252406497
30
0
0
SPLINE
5
132
100
AcDbEntity
8
0
100
AcDbSpline
70
0
71
2
72
6
73
3
74
0
42
0.000000001
43
0.0000000001
44
0.0000000001
40
0
40
0
40
0
40
1
40
1
40
1
10
146.31125216134049
20
154.15206270550783
30
0
10
146.5483844398824
20
159.25683883365232
30
0
10
154.8033471022402
20
162.35004004053457
30
0
0
SPLINE
5
133
100
AcDbEntity
8
0
100
AcDbSpline
70
4
71
3
72
8
73
4
74
0
42
0.000000001
43
0.0000000001
44
0.0000000001
40
0
40
0
40
0
40
0
40
1
40
1
40
1
40
1
41
1
41
1
41
1
41
1
10
154.8033471022402
20
162.35004004053457
30
0
10
163.05830976459805
20
165.44324124741684
30
0
10
174.69245105971569
20
167.75342742859476
30
0
10
182.85836296040895
20
162.50952407514959
30
0
0
SPLINE
5
134
100
AcDbEntity
8
0
100
AcDbSpline
70
4
71
3
72
8
73
4
74
0
42
0.000000001
43
0.0000000001
44
0.0000000001
40
0
40
0
40
0
40
0
40
1
40
1
40
1
40
1
41
1
41
1
41
1
41
1
10
182.85836296040895
20
162.50952407514959
30
0
10
191.02456716147853
20
157.26586599084246
30
0
10
195.38241865048519
20
150.30954942201376
30
0
10
189.77006082379009
20
131.21225490293619
30
0
0
SPLINE
5
135
100
AcDbEntity
8
0
100
AcDbSpline
70
4
71
3
72
8
73
4
74
0
42
0.000000001
43
0.0000000001
44
0.0000000001
40
0
40
0
40
0
40
0
40
1
40
1
40
1
40
1
41
1
41
1
41
1
41
1
10
189.77006082379009
20
131.21225490293619
30
0
10
184.15821499919815
20
112.11464474737163
30
0
10
175.46978637230643
20
114.89244581048084
30
0
10
171.64359222784154
20
120.02251802438023
30
0
0
SPLINE
5
136
100
AcDbEntity
8
0
100
AcDbSpline
70
4
71
3
72
8
73
4
74
0
42
0.000000001
43
0.0000000001
44
0.0000000001
40
0
40
0
40
0
40
0
40
1
40
1
40
1
40
1
41
1
41
1
41
1
41
1
10
171.64359222784154
20
120.02251802438023
30
0
10
167.81778802803541
20
125.15241553274642
30
0
10
169.6301149907078
20
130.53508436916434
30
0
10
163.23603093205833
20
137.20791333850684
30
0
0
SPLINE
5
137
100
AcDbEntity
8
0
100
AcDbSpline
70
4
71
3
72
8
73
4
74
0
42
0.000000001
43
0.0000000001
44
0.0000000001
40
0
40
0
40
0
40
0
40
1
40
1
40
1
40
1
41
1
41
1
41
1
41
1
10
163.23603093205833
20
137.20791333850684
30
0
10
156.84140332802687
20
143.88079192940538
30
0
10
146.72023480930082
20
143.95750562164659
30
0
10
146.31125216134049
20
154.15206270550783
30
0
0
SPLINE
5
138
100
AcDbEntity
8
0
100
AcDbSpline
70
4
71
3
72
8
73
4
74
0
42
0.000000001
43
0.0000000001
44
0.0000000001
40
0
40
0
40
0
40
0
40
1
40
1
40
1
40
1
41
1
41
1
41
1
41
1
10
228.72817595873926
20
32.271388435667625
30
0
10
226.06041409289583
20
27.377501250971648
30
0
10
218.25512258389688
20
26.655815888862907
30
0
10
211.29432667336658
20
30.65970295731384
30
0
0
SPLINE
5
139
100
AcDbEntity
8
0
100
AcDbSpline
70
4
71
3
72
8
73
4
74
0
42
0.000000001
43
0.0000000001
44
0.0000000001
40
0
40
0
40
0
40
0
40
1
40
1
40
1
40
1
41
1
41
1
41
1
41
1
10
211.29432667336658
20
30.65970295731384
30
0
10
204.33353101443601
20
34.663589774165018
30
0
10
200.8534617742319
20
41.876730915280653
30
0
10
203.52122414327482
20
46.770619609575078
30
0
0
SPLINE
5
140
100
AcDbEntity
8
0
100
AcDbSpline
70
4
71
3
72
8
73
4
74
0
42
0.000000001
43
0.0000000001
44
0.0000000001
40
0
40
0
40
0
40
0
40
1
40
1
40
1
40
1
41
1
41
1
41
1
41
1
10
203.52122414327482
20
46.770619609575078
30
0
10
206.18898651231777
20
51.664508303869496
30
0
10
213.99440753228316
20
52.386060129415938
30
0
10
220.95507336574758
20
48.382305150828799
30
0
0
SPLINE
5
141
100
AcDbEntity
8
0
100
AcDbSpline
70
4
71
3
72
8
73
4
74
0
42
0.000000001
43
0.0000000001
44
0.0000000001
40
0
40
0
40
0
40
0
40
1
40
1
40
1
40
1
41
1
41
1
41
1
41
1
10
220.95507336574758
20
48.382305150828799
30
0
10
227.91600186934116
20
44.37855117864062
30
0
10
231.39607060634577
20
37.165408527926552
30
0
10
228.72817595873926
20
32.271388435667625
30
0
0
SPLINE
5
142
100
AcDbEntity
8
0
100
AcDbSpline
70
4
71
3
72
8
73
4
74
0
42
0.000000001
43
0.0000000001
44
0.0000000001
40
0
40
0
40
0
40
0
40
1
40
1
40
1
40
1
41
1
41
1
41
1
41
1
10
206.51045137301548
20
9.431309074731864
30
0
10
201.78738912947983
20
6.3230979217606986
30
0
10
194.33509067267971
20
9.2329140227014062
30
0
10
189.86437211081849
20
15.930020573544272
30
0
0
SPLINE
5
143
100
AcDbEntity
8
0
100
AcDbSpline
70
4
71
3
72
8
73
4
74
0
42
0.000000001
43
0.0000000001
44
0.0000000001
40
0
40
0
40
0
40
0
40
1
40
1
40
1
40
1
41
1
41
1
41
1
41
1
10
189.86437211081849
20
15.930020573544272
30
0
10
185.39378488402184
20
22.626995789322564
30
0
10
185.59890509490492
20
30.576331860884881
30
0
10
190.32170596562258
20
33.684281059213681
30
0
0
SPLINE
5
144
100
AcDbEntity
8
0
100
AcDbSpline
70
4
71
3
72
8
73
4
74
0
42
0.000000001
43
0.0000000001
44
0.0000000001
40
0
40
0
40
0
40
0
40
1
40
1
40
1
40
1
41
1
41
1
41
1
41
1
10
190.32170596562258
20
33.684281059213681
30
0
10
195.04463766820533
20
36.792361089407557
30
0
10
202.49719709683637
20
33.882807344096307
30
0
10
206.96765147896997
20
27.185699283655001
30
0
0
SPLINE
5
145
100
AcDbEntity
8
0
100
AcDbSpline
70
4
71
3
72
8
73
4
74
0
42
0.000000001
43
0.0000000001
44
0.0000000001
40
0
40
0
40
0
40
0
40
1
40
1
40
1
40
1
41
1
41
1
41
1
41
1
10
206.96765147896997
20
27.185699283655001
30
0
10
211.43824273136246
20
20.488728093472556
30
0
10
211.23325291204495
20
12.539523294074876
30
0
10
206.51045137301548
20
9.431309074731864
30
0
0
SPLINE
5
146
100
AcDbEntity
8
0
100
AcDbSpline
70
4
71
3
72
8
73
4
74
0
42
0.000000001
43
0.0000000001
44
0.0000000001
40
0
40
0
40
0
40
0
40
1
40
1
40
1
40
1
41
1
41
1
41
1
41
1
10
176.73516800945941
20
12.324508734694714
30
0
10
171.76767230146743
20
10.388848271519135
30
0
10
165.48001967160175
20
14.458824301820092
30
0
10
162.69155383662647
20
21.415400129902082
30
0
0
SPLINE
5
147
100
AcDbEntity
8
0
100
AcDbSpline
70
4
71
3
72
8
73
4
74
0
42
0.000000001
43
0.0000000001
44
0.0000000001
40
0
40
0
40
0
40
0
40
1
40
1
40
1
40
1
41
1
41
1
41
1
41
1
10
162.69155383662647
20
21.415400129902082
30
0
10
159.90309404004492
20
28.371977970781987
30
0
10
161.66924571961545
20
35.58024008972879
30
0
10
166.63673840841054
20
37.515895520909559
30
0
0
SPLINE
5
148
100
AcDbEntity
8
0
100
AcDbSpline
70
4
71
3
72
8
73
4
74
0
42
0.000000001
43
0.0000000001
44
0.0000000001
40
0
40
0
40
0
40
0
40
1
40
1
40
1
40
1
41
1
41
1
41
1
41
1
10
166.63673840841054
20
37.515895520909559
30
0
10
171.60423109720563
20
39.451550952090336
30
0
10
177.89215142919522
20
35.381315270857115
30
0
10
180.68061323857472
20
28.425266795831341
30
0
0
SPLINE
5
149
100
AcDbEntity
8
0
100
AcDbSpline
70
4
71
3
72
8
73
4
74
0
42
0.000000001
43
0.0000000001
44
0.0000000001
40
0
40
0
40
0
40
0
40
1
40
1
40
1
40
1
41
1
41
1
41
1
41
1
10
180.68061323857472
20
28.425266795831341
30
0
10
183.46921191821303
20
21.468823812412367
30
0
10
181.70266472385032
20
14.260168191471339
30
0
10
176.73516800945941
20
12.324508734694714
30
0
0
SPLINE
5
150
100
AcDbEntity
8
0
100
AcDbSpline
70
4
71
3
72
8
73
4
74
0
42
0.000000001
43
0.0000000001
44
0.0000000001
40
0
40
0
40
0
40
0
40
1
40
1
40
1
40
1
41
1
41
1
41
1
41
1
10
224.40981506646909
20
62.503348137418307
30
0
10
222.91196884702595
20
57.480583514418832
30
0
10
215.9342878263073
20
55.277542974961626
30
0
10
208.82469507441414
20
57.582945359264812
30
0
0
SPLINE
5
151
100
AcDbEntity
8
0
100
AcDbSpline
70
4
71
3
72
8
73
4
74
0
42
0.000000001
43
0.0000000001
44
0.0000000001
40
0
40
0
40
0
40
0
40
1
40
1
40
1
40
1
41
1
41
1
41
1
41
1
10
208.82469507441414
20
57.582945359264812
30
0
10
201.71510332891989
20
59.888348749966973
30
0
10
197.16550271320071
20
65.829080561572255
30
0
10
198.66308173371937
20
70.852111377097245
30
0
0
SPLINE
5
152
100
AcDbEntity
8
0
100
AcDbSpline
70
4
71
3
72
8
73
4
74
0
42
0.000000001
43
0.0000000001
44
0.0000000001
40
0
40
0
40
0
40
0
40
1
40
1
40
1
40
1
41
1
41
1
41
1
41
1
10
198.66308173371937
20
70.852111377097245
30
0
10
200.16079712129743
20
75.874743155433706
30
0
10
207.13874232174365
20
78.077784198090384
30
0
10
214.24859673736702
20
75.772381813787192
30
0
0
SPLINE
5
153
100
AcDbEntity
8
0
100
AcDbSpline
70
4
71
3
72
8
73
4
74
0
42
0.000000001
43
0.0000000001
44
0.0000000001
40
0
40
0
40
0
40
0
40
1
40
1
40
1
40
1
41
1
41
1
41
1
41
1
10
214.24859673736702
20
75.772381813787192
30
0
10
221.35792851742934
20
73.466976095787459
30
0
10
225.90752840979928
20
67.525981897102724
30
0
10
224.40981506646909
20
62.503348137418307
30
0
0
SPLINE
5
154
100
AcDbEntity
8
0
100
AcDbSpline
70
0
71
2
72
6
73
3
74
0
42
0.000000001
43
0.0000000001
44
0.0000000001
40
0
40
0
40
0
40
1
40
1
40
1
10
181.68010528471328
20
87.548050765291691
30
0
10
186.67002356158343
20
87.751986444596241
30
0
10
190.38449720967321
20
79.978882908105547
30
0
0
SPLINE
5
155
100
AcDbEntity
8
0
100
AcDbSpline
70
4
71
3
72
8
73
4
74
0
42
0.000000001
43
0.0000000001
44
0.0000000001
40
0
40
0
40
0
40
0
40
1
40
1
40
1
40
1
41
1
41
1
41
1
41
1
10
190.38449720967321
20
79.978882908105547
30
0
10
194.09897085776294
20
72.205779371614852
30
0
10
197.33896362553037
20
61.076206477065668
30
0
10
192.92931989428973
20
52.679693129025935
30
0
0
SPLINE
5
156
100
AcDbEntity
8
0
100
AcDbSpline
70
4
71
3
72
8
73
4
74
0
42
0.000000001
43
0.0000000001
44
0.0000000001
40
0
40
0
40
0
40
0
40
1
40
1
40
1
40
1
41
1
41
1
41
1
41
1
10
192.92931989428973
20
52.679693129025935
30
0
10
188.51993983957715
20
44.28291610445811
30
0
10
182.11883988029669
20
39.447861493494855
30
0
10
163.04876910987136
20
43.285141981348033
30
0
0
SPLINE
5
157
100
AcDbEntity
8
0
100
AcDbSpline
70
4
71
3
72
8
73
4
74
0
42
0.000000001
43
0.0000000001
44
0.0000000001
40
0
40
0
40
0
40
0
40
1
40
1
40
1
40
1
41
1
41
1
41
1
41
1
10
163.04876910987136
20
43.285141981348033
30
0
10
143.97843466291795
20
47.121897128942905
30
0
10
145.94271610618
20
55.817055343424471
30
0
10
150.61117143293797
20
59.97896994451974
30
0
0
SPLINE
5
158
100
AcDbEntity
8
0
100
AcDbSpline
70
4
71
3
72
8
73
4
74
0
42
0.000000001
43
0.0000000001
44
0.0000000001
40
0
40
0
40
0
40
0
40
1
40
1
40
1
40
1
41
1
41
1
41
1
41
1
10
150.61117143293797
20
59.97896994451974
30
0
10
155.27948988943709
20
64.140490037221824
30
0
10
160.67411440018014
20
62.834574667062419
30
0
10
166.62579281329749
20
69.627844148343485
30
0
0
SPLINE
5
159
100
AcDbEntity
8
0
100
AcDbSpline
70
4
71
3
72
8
73
4
74
0
42
0.000000001
43
0.0000000001
44
0.0000000001
40
0
40
0
40
0
40
0
40
1
40
1
40
1
40
1
41
1
41
1
41
1
41
1
10
166.62579281329749
20
69.627844148343485
30
0
10
172.57747323921274
20
76.421647021074534
30
0
10
171.79009688314355
20
86.281577176860509
30
0
10
181.68010528471328
20
87.548050765291691
30
0
0
SPLINE
5
160
100
AcDbEntity
8
0
100
AcDbSpline
70
4
71
3
72
8
73
4
74
0
42
0.000000001
43
0.0000000001
44
0.0000000001
40
0
40
0
40
0
40
0
40
1
40
1
40
1
40
1
41
1
41
1
41
1
41
1
10
70.424125124227828
20
21.658426447516526
30
0
10
63.839318524911555
20
26.032655770004347
30
0
10
63.784482666964202
20
37.149966252766703
30
0
10
70.302020412800644
20
46.489947245766047
30
0
0
SPLINE
5
161
100
AcDbEntity
8
0
100
AcDbSpline
70
4
71
3
72
8
73
4
74
0
42
0.000000001
43
0.0000000001
44
0.0000000001
40
0
40
0
40
0
40
0
40
1
40
1
40
1
40
1
41
1
41
1
41
1
41
1
10
70.302020412800644
20
46.489947245766047
30
0
10
76.819557772050729
20
55.829927914380917
30
0
10
87.441190163486596
20
59.855283325258945
30
0
10
94.025998833513484
20
55.481053105194619
30
0
0
SPLINE
5
162
100
AcDbEntity
8
0
100
AcDbSpline
70
4
71
3
72
8
73
4
74
0
42
0.000000001
43
0.0000000001
44
0.0000000001
40
0
40
0
40
0
40
0
40
1
40
1
40
1
40
1
41
1
41
1
41
1
41
1
10
94.025998833513484
20
55.481053105194619
30
0
10
100.61080750354039
20
51.106822885130292
30
0
10
100.66543867838951
20
39.989345923073785
30
0
10
94.148103641587255
20
30.649532388041216
30
0
0
SPLINE
5
163
100
AcDbEntity
8
0
100
AcDbSpline
70
4
71
3
72
8
73
4
74
0
42
0.000000001
43
0.0000000001
44
0.0000000001
40
0
40
0
40
0
40
0
40
1
40
1
40
1
40
1
41
1
41
1
41
1
41
1
10
94.148103641587255
20
30.649532388041216
30
0
10
87.630737557340751
20
21.309347601825511
30
0
10
77.009103095194263
20
17.283993088523996
30
0
10
70.424125124227828
20
21.658426447516526
30
0
0
SPLINE
5
164
100
AcDbEntity
8
0
100
AcDbSpline
70
4
71
3
72
8
73
4
74
0
42
0.000000001
43
0.0000000001
44
0.0000000001
40
0
40
0
40
0
40
0
40
1
40
1
40
1
40
1
41
1
41
1
41
1
41
1
10
40.899758402813013
20
55.873188327086382
30
0
10
37.091995916456277
20
62.930620371850381
30
0
10
42.124476149369997
20
73.100286758571556
30
0
10
52.139459886447753
20
78.589119648738475
30
0
0
SPLINE
5
165
100
AcDbEntity
8
0
100
AcDbSpline
70
4
71
3
72
8
73
4
74
0
42
0.000000001
43
0.0000000001
44
0.0000000001
40
0
40
0
40
0
40
0
40
1
40
1
40
1
40
1
41
1
41
1
41
1
41
1
10
52.139459886447753
20
78.589119648738475
30
0
10
62.154241825442881
20
84.077783210208693
30
0
10
73.360507937982476
20
82.805329181689032
30
0
10
77.167932617493207
20
75.748298811675298
30
0
0
SPLINE
5
166
100
AcDbEntity
8
0
100
AcDbSpline
70
4
71
3
72
8
73
4
74
0
42
0.000000001
43
0.0000000001
44
0.0000000001
40
0
40
0
40
0
40
0
40
1
40
1
40
1
40
1
41
1
41
1
41
1
41
1
10
77.167932617493207
20
75.748298811675298
30
0
10
80.975525976931692
20
68.69106741675165
30
0
10
75.943384166986021
20
58.520999872267964
30
0
10
65.928430952987313
20
53.032540428398576
30
0
0
SPLINE
5
167
100
AcDbEntity
8
0
100
AcDbSpline
70
4
71
3
72
8
73
4
74
0
42
0.000000001
43
0.0000000001
44
0.0000000001
40
0
40
0
40
0
40
0
40
1
40
1
40
1
40
1
41
1
41
1
41
1
41
1
10
65.928430952987313
20
53.032540428398576
30
0
10
55.913654204143825
20
47.543870681546537
30
0
10
44.707557448058125
20
48.816124252829127
30
0
10
40.899758402813013
20
55.873188327086382
30
0
0
SPLINE
5
168
100
AcDbEntity
8
0
100
AcDbSpline
70
4
71
3
72
8
73
4
74
0
42
0.000000001
43
0.0000000001
44
0.0000000001
40
0
40
0
40
0
40
0
40
1
40
1
40
1
40
1
41
1
41
1
41
1
41
1
10
48.668167567009192
20
97.585067171638698
30
0
10
46.547317738269186
20
104.84291714644908
30
0
10
53.075023502101111
20
113.22364416325463
30
0
10
63.248663590123698
20
116.30354747029958
30
0
0
SPLINE
5
169
100
AcDbEntity
8
0
100
AcDbSpline
70
4
71
3
72
8
73
4
74
0
42
0.000000001
43
0.0000000001
44
0.0000000001
40
0
40
0
40
0
40
0
40
1
40
1
40
1
40
1
41
1
41
1
41
1
41
1
10
63.248663590123698
20
116.30354747029958
30
0
10
73.422305775607001
20
119.38344199688692
30
0
10
83.388544620633752
20
115.99701190608285
30
0
10
85.509387712876674
20
108.73916681911643
30
0
0
SPLINE
5
170
100
AcDbEntity
8
0
100
AcDbSpline
70
4
71
3
72
8
73
4
74
0
42
0.000000001
43
0.0000000001
44
0.0000000001
40
0
40
0
40
0
40
0
40
1
40
1
40
1
40
1
41
1
41
1
41
1
41
1
10
85.509387712876674
20
108.73916681911643
30
0
10
87.630230805119567
20
101.48132173214998
30
0
10
81.10212508892856
20
93.100248575031245
30
0
10
70.929230595963148
20
90.020285768173636
30
0
0
SPLINE
5
171
100
AcDbEntity
8
0
100
AcDbSpline
70
4
71
3
72
8
73
4
74
0
42
0.000000001
43
0.0000000001
44
0.0000000001
40
0
40
0
40
0
40
0
40
1
40
1
40
1
40
1
41
1
41
1
41
1
41
1
10
70.929230595963148
20
90.020285768173636
30
0
10
60.75576178294412
20
86.940178343527833
30
0
10
50.789015849403739
20
90.327215899290422
30
0
10
48.668167567009192
20
97.585067171638698
30
0
0
SPLINE
5
172
100
AcDbEntity
8
0
100
AcDbSpline
70
4
71
3
72
8
73
4
74
0
42
0.000000001
43
0.0000000001
44
0.0000000001
40
0
40
0
40
0
40
0
40
1
40
1
40
1
40
1
41
1
41
1
41
1
41
1
10
113.67268331108249
20
24.022784379135555
30
0
10
106.76116917363849
20
26.759970098333966
30
0
10
104.51102248123658
20
36.891063674822163
30
0
10
108.64716341354013
20
46.651234232469783
30
0
0
SPLINE
5
173
100
AcDbEntity
8
0
100
AcDbSpline
70
4
71
3
72
8
73
4
74
0
42
0.000000001
43
0.0000000001
44
0.0000000001
40
0
40
0
40
0
40
0
40
1
40
1
40
1
40
1
41
1
41
1
41
1
41
1
10
108.64716341354013
20
46.651234232469783
30
0
10
112.78330564338157
20
56.411403243771936
30
0
10
121.73935789852857
20
62.105186221279311
30
0
10
128.65128116875073
20
59.368345122798686
30
0
0
SPLINE
5
174
100
AcDbEntity
8
0
100
AcDbSpline
70
4
71
3
72
8
73
4
74
0
42
0.000000001
43
0.0000000001
44
0.0000000001
40
0
40
0
40
0
40
0
40
1
40
1
40
1
40
1
41
1
41
1
41
1
41
1
10
128.65128116875073
20
59.368345122798686
30
0
10
135.56262378238361
20
56.631360677317744
30
0
10
137.81273852976477
20
46.499893778935785
30
0
10
133.67656525247907
20
36.739353516450493
30
0
0
SPLINE
5
175
100
AcDbEntity
8
0
100
AcDbSpline
70
4
71
3
72
8
73
4
74
0
42
0.000000001
43
0.0000000001
44
0.0000000001
40
0
40
0
40
0
40
0
40
1
40
1
40
1
40
1
41
1
41
1
41
1
41
1
10
133.67656525247907
20
36.739353516450493
30
0
10
129.54045186944825
20
26.979552098143145
30
0
10
120.58402897685822
20
21.285802577053722
30
0
10
113.67268331108249
20
24.022784379135555
30
0
0
SPLINE
5
176
100
AcDbEntity
8
0
100
AcDbSpline
70
0
71
2
72
6
73
3
74
0
42
0.000000001
43
0.0000000001
44
0.0000000001
40
0
40
0
40
0
40
1
40
1
40
1
10
154.34029671079301
20
81.299770949059607
30
0
10
154.01161986165965
20
74.224303435119893
30
0
10
142.56984089229897
20
69.9369764096094
30
0
0
SPLINE
5
177
100
AcDbEntity
8
0
100
AcDbSpline
70
4
71
3
72
8
73
4
74
0
42
0.000000001
43
0.0000000001
44
0.0000000001
40
0
40
0
40
0
40
0
40
1
40
1
40
1
40
1
41
1
41
1
41
1
41
1
10
142.56984089229897
20
69.9369764096094
30
0
10
131.12806192293829
20
65.649649384098922
30
0
10
115.00257733364437
20
62.447619193987912
30
0
10
103.68422704272771
20
69.715923795824978
30
0
0
SPLINE
5
178
100
AcDbEntity
8
0
100
AcDbSpline
70
4
71
3
72
8
73
4
74
0
42
0.000000001
43
0.0000000001
44
0.0000000001
40
0
40
0
40
0
40
0
40
1
40
1
40
1
40
1
41
1
41
1
41
1
41
1
10
103.68422704272771
20
69.715923795824978
30
0
10
92.365471609300315
20
76.983888442730702
30
0
10
86.325277903048985
20
86.625680886490315
30
0
10
94.104278290637069
20
113.09545812684644
30
0
0
SPLINE
5
179
100
AcDbEntity
8
0
100
AcDbSpline
70
4
71
3
72
8
73
4
74
0
42
0.000000001
43
0.0000000001
44
0.0000000001
40
0
40
0
40
0
40
0
40
1
40
1
40
1
40
1
41
1
41
1
41
1
41
1
10
94.104278290637069
20
113.09545812684644
30
0
10
101.88256901845612
20
139.56567285469544
30
0
10
113.92515285632979
20
135.71550573887316
30
0
10
119.22844367488879
20
128.60497662213331
30
0
0
SPLINE
5
180
100
AcDbEntity
8
0
100
AcDbSpline
70
4
71
3
72
8
73
4
74
0
42
0.000000001
43
0.0000000001
44
0.0000000001
40
0
40
0
40
0
40
0
40
1
40
1
40
1
40
1
41
1
41
1
41
1
41
1
10
119.22844367488879
20
128.60497662213331
30
0
10
124.53119401122166
20
121.49468965574316
30
0
10
122.01922086545974
20
114.0340493584352
30
0
10
130.88173175774813
20
104.78518448885667
30
0
0
SPLINE
5
181
100
AcDbEntity
8
0
100
AcDbSpline
70
4
71
3
72
8
73
4
74
0
42
0.000000001
43
0.0000000001
44
0.0000000001
40
0
40
0
40
0
40
0
40
1
40
1
40
1
40
1
41
1
41
1
41
1
41
1
10
130.88173175774813
20
104.78518448885667
30
0
10
139.74499603032112
20
95.536250841392715
30
0
10
153.77342690754068
20
95.429921940045915
30
0
10
154.34029671079301
20
81.299770949059607
30
0
0
ENDSEC
0
SECTION
2
OBJECTS
0
DICTIONARY
5
C
100
AcDbDictionary
3
ACAD_GROUP
350
D
3
ACAD_MLINESTYLE
350
17
0
DICTIONARY
5
D
100
AcDbDictionary
0
DICTIONARY
5
1A
330
C
100
AcDbDictionary
0
DICTIONARY
5
17
100
AcDbDictionary
0
ENDSEC
0
EOF
